<?xml version="1.0" encoding="UTF-8"?>
<!DOCTYPE svg PUBLIC "-//W3C//DTD SVG 1.1//EN" "http://www.w3.org/Graphics/SVG/1.1/DTD/svg11.dtd">
<svg xmlns="http://www.w3.org/2000/svg" version="1.1" width="572px" height="588px" style="shape-rendering:geometricPrecision; text-rendering:geometricPrecision; image-rendering:optimizeQuality; fill-rule:evenodd; clip-rule:evenodd" xmlns:xlink="http://www.w3.org/1999/xlink">
<g><path style="opacity:0.986" fill="#96bd0d" d="M 186.5,22.5 C 254.167,22.5 321.833,22.5 389.5,22.5C 389.667,67.8346 389.5,113.168 389,158.5C 375.393,135.093 355.227,120.593 328.5,115C 271.391,103.978 224.391,120.812 187.5,165.5C 186.5,117.838 186.167,70.1713 186.5,22.5 Z"/></g>
<g><path style="opacity:0.986" fill="#009f95" d="M 370.5,154.5 C 371.239,154.369 371.906,154.536 372.5,155C 363.388,182.895 352.055,209.895 338.5,236C 341.726,252.453 337.392,266.453 325.5,278C 312.784,287.507 300.951,286.674 290,275.5C 284.8,266.316 285.467,257.649 292,249.5C 290.372,257.824 292.539,264.99 298.5,271C 306.529,272.917 313.029,270.417 318,263.5C 319.908,260.785 321.241,257.785 322,254.5C 322.405,246.147 322.405,237.813 322,229.5C 336.184,203.11 352.351,178.11 370.5,154.5 Z"/></g>
<g><path style="opacity:0.984" fill="#96bd0d" d="M 25.5,186.5 C 74.5,186.5 123.5,186.5 172.5,186.5C 153.967,224.464 143.967,264.631 142.5,307C 142.295,315.039 143.129,322.873 145,330.5C 132.568,338.265 122.901,348.598 116,361.5C 115.045,365.902 113.879,370.236 112.5,374.5C 106.216,379.459 101.883,385.792 99.5,393.5C 74.8423,394.5 50.1757,394.833 25.5,394.5C 25.5,325.167 25.5,255.833 25.5,186.5 Z"/></g>
<g><path style="opacity:0.255" fill="#009f96" d="M 550.5,187.5 C 501.5,187.5 452.5,187.5 403.5,187.5C 403.5,188.5 403.5,189.5 403.5,190.5C 402.566,189.432 402.232,188.099 402.5,186.5C 452.003,186.168 501.336,186.501 550.5,187.5 Z"/></g>
<g><path style="opacity:0.997" fill="#009e95" d="M 550.5,187.5 C 550.5,256.5 550.5,325.5 550.5,394.5C 501.167,394.5 451.833,394.5 402.5,394.5C 403.263,391.859 403.43,389.192 403,386.5C 400.972,380.944 398.805,375.444 396.5,370C 398.601,365.564 401.768,362.064 406,359.5C 407.439,357.725 408.439,355.725 409,353.5C 410.308,344.488 410.475,335.488 409.5,326.5C 418.582,326.914 427.582,326.414 436.5,325C 443.935,319.258 445.435,312.091 441,303.5C 433.079,289.326 425.412,274.992 418,260.5C 416.667,257.833 414.667,255.833 412,254.5C 412.885,249.154 414.219,243.821 416,238.5C 416.667,234.5 416.667,230.5 416,226.5C 413.861,220.888 411.194,215.554 408,210.5C 406.052,203.923 404.552,197.256 403.5,190.5C 403.5,189.5 403.5,188.5 403.5,187.5C 452.5,187.5 501.5,187.5 550.5,187.5 Z"/></g>
<g><path style="opacity:0.99" fill="#009f95" d="M 218.5,356.5 C 241.032,354.882 262.032,360.049 281.5,372C 286.146,375.642 289.646,380.142 292,385.5C 292.667,395.167 292.667,404.833 292,414.5C 290.873,423.949 286.373,431.116 278.5,436C 276.833,436.667 275.167,436.667 273.5,436C 255.906,427.035 237.573,420.035 218.5,415C 219.949,413.883 221.616,413.216 223.5,413C 240.322,411.47 256.655,413.637 272.5,419.5C 273.971,418.619 274.804,417.286 275,415.5C 276.885,406.147 276.885,396.814 275,387.5C 269.11,382.137 262.61,377.637 255.5,374C 243.18,368.064 230.846,362.231 218.5,356.5 Z"/></g>
<g><path style="opacity:0.968" fill="#009f95" d="M 299.5,386.5 C 314.517,388.18 324.517,396.18 329.5,410.5C 329.333,411.167 329.167,411.833 329,412.5C 322.455,401.307 312.621,395.974 299.5,396.5C 299.5,393.167 299.5,389.833 299.5,386.5 Z"/></g>
<g><path style="opacity:0.989" fill="#009f95" d="M 348.5,405.5 C 362.219,405.357 375.886,406.024 389.5,407.5C 389.5,457.833 389.5,508.167 389.5,558.5C 310.499,558.667 231.499,558.5 152.5,558C 182.113,553.805 208.78,542.805 232.5,525C 256.017,504.159 271.517,478.325 279,447.5C 279.667,451.167 279.667,454.833 279,458.5C 277.499,470.837 275.999,483.171 274.5,495.5C 273.881,501.427 275.881,506.26 280.5,510C 290.086,516.753 300.753,520.753 312.5,522C 328.57,522.965 344.57,522.299 360.5,520C 352.172,511.183 346.005,501.016 342,489.5C 338.646,465.982 335.146,442.482 331.5,419C 331.376,416.41 332.042,414.077 333.5,412C 338.148,408.771 343.148,406.604 348.5,405.5 Z"/></g>
</svg>
